<?xml version="1.0" encoding="UTF-8"?>
<svg version="1.1" xmlns="http://www.w3.org/2000/svg" width="800" height="800">
<path d="M0 0 C264 0 528 0 800 0 C800 264 800 528 800 800 C536 800 272 800 0 800 C0 536 0 272 0 0 Z M254 141 C244.6117477 165.26181279 235.79412338 189.7310404 226.9256134 214.18624878 C222.44899468 226.52710283 217.94596231 238.85825007 213.4375 251.1875 C213.04745789 252.25425964 212.65741577 253.32101929 212.2555542 254.42010498 C210.67967614 258.73010507 209.10377904 263.04009818 207.52764893 267.3500061 C204.79014163 274.83639968 202.05637649 282.32415265 199.32421875 289.8125 C197.75803696 294.10424862 196.19161187 298.39590836 194.625 302.6875 C194.23526001 303.7552063 193.84552002 304.8229126 193.44396973 305.92297363 C188.9533336 318.22192361 184.44682263 330.51482352 179.91015625 342.796875 C179.48233353 343.95521851 179.0545108 345.11356201 178.61372375 346.30700684 C178.18359482 347.47155396 177.75346588 348.63610107 177.31030273 349.8359375 C168.48498866 373.73035045 159.76679405 397.65995498 151.14489746 421.6282959 C145.53271131 437.22971008 139.88981585 452.81785813 134.13067627 468.36566162 C128.1962876 484.39221416 122.39603106 500.46672372 116.59115601 516.54055786 C110.31872045 533.90339903 103.976286 551.238652 97.57089233 568.55300903 C90.72545059 587.06462838 83.91423646 605.58850825 77.27087402 624.17376709 C76.51267546 626.2919495 75.75140923 628.40903658 74.98693848 630.52496338 C73.94315102 633.41714135 72.91123562 636.31326692 71.8828125 639.2109375 C71.5725412 640.06423645 71.2622699 640.9175354 70.94259644 641.79669189 C70.66908356 642.57582947 70.39557068 643.35496704 70.11376953 644.15771484 C69.87288605 644.83184418 69.63200256 645.50597351 69.38381958 646.20053101 C68.79308253 648.22453019 68.79308253 648.22453019 70 651 C72.76926115 652.44995904 72.76926115 652.44995904 76.125 653.625 C77.24132812 654.05039062 78.35765625 654.47578125 79.5078125 654.9140625 C83.01942122 656.00603926 86.36132722 656.52087109 90 657 C99.44252513 631.54548208 108.8200994 606.06763331 118.125 580.5625 C118.36328522 579.90938591 118.60157043 579.25627182 118.84707642 578.58336639 C121.80132452 570.485887 124.75425968 562.38792912 127.70672798 554.28980064 C131.8983605 542.79296092 136.09140553 531.29663665 140.28631973 519.80099392 C141.53567451 516.37718931 142.78473033 512.95327634 144.03302002 509.52908325 C153.91293305 482.42759758 153.91293305 482.42759758 159 469 C160.04236816 469.53173828 161.08473633 470.06347656 162.15869141 470.61132812 C205.52266123 492.68389818 251.54853767 504.13489898 300.31640625 504.16796875 C301.75953723 504.17188746 303.20266773 504.17598694 304.64579773 504.18025208 C308.48690398 504.1894259 312.32796732 504.19045998 316.16908264 504.18847656 C318.59128024 504.18748826 321.01347154 504.18848919 323.43566895 504.18969727 C343.3987555 504.19339333 363.30481343 503.91620859 383.25 503 C406.22708068 501.95371958 429.18000179 501.77049464 452.17729187 501.75323486 C454.96265132 501.7500428 457.74797608 501.74295973 460.5333252 501.73486328 C499.24987297 501.63518313 499.24987297 501.63518313 517 504 C517.67129944 504.08679016 518.34259888 504.17358032 519.03424072 504.26300049 C523.14576043 504.80747074 527.2288579 505.46497731 531.3125 506.1875 C532.52615234 506.40108154 533.73980469 506.61466309 534.99023438 506.8347168 C563.84549662 512.1370028 593.74490595 521.55733771 618.2800293 538.07543945 C620.11495089 539.23673671 620.11495089 539.23673671 623 539 C623.17490805 516.09567863 623.03905942 493.21975316 622.34375 470.32421875 C622.2943074 468.69534918 622.2943074 468.69534918 622.24386597 467.03357315 C622.03942708 460.37188112 621.8260473 453.71049653 621.60931396 447.04919434 C621.42614717 441.41632956 621.24554319 435.78338492 621.06640625 430.15039062 C621.03126923 429.04660631 620.9961322 427.942822 620.95993042 426.80558968 C620.6934369 418.34221615 620.45764837 409.87823038 620.2394104 401.41348076 C620.10110025 396.18314054 619.9228753 390.95779799 619.68531036 385.73104 C619.59329922 383.59063654 619.5211843 381.45072193 619.45837402 379.3092804 C619.38547695 376.85937777 619.28042401 374.41006253 619.13244629 371.96354675 C619.00378848 365.52639859 620.00891679 362.29920941 624.33740234 357.42895508 C625.86700654 355.92716877 627.41935632 354.44796984 629 353 C630.09098919 351.89820849 631.17830817 350.79273392 632.2578125 349.6796875 C633.21081623 348.74201359 634.16644698 347.8070003 635.125 346.875 C638.29866923 343.78780677 641.3295721 340.65320535 644.2109375 337.2890625 C649.54902269 331.11960018 655.45591098 325.5010326 661.26171875 319.77734375 C665.11695904 315.95548217 668.93867012 312.15808148 672.46875 308.03125 C677.45080489 302.21395096 683.00710875 296.93669104 688.45703125 291.56347656 C693.61857575 286.46801652 698.67343554 281.34665036 703.390625 275.83203125 C706.10947824 272.73702598 709.05779279 269.88062234 712 267 C718.42066382 260.64623574 724.43415374 254.12428322 730 247 C728.6618535 243.810709 727.54553475 242.38680535 724.4921875 240.7734375 C723.76539795 240.38647705 723.0386084 239.9995166 722.28979492 239.60083008 C721.4929126 239.19630615 720.69603027 238.79178223 719.875 238.375 C719.03751221 237.94405029 718.20002441 237.51310059 717.3371582 237.0690918 C664.00909094 210.16848895 607.81726238 204.58832638 549.02416992 204.80438232 C545.33940944 204.81516454 541.65468604 204.81480915 537.96991253 204.81436634 C520.40732393 204.81492192 502.87960116 204.95587121 485.32887268 205.63796997 C469.86731034 206.20626907 454.40048778 206.18726231 438.93041992 206.18530273 C435.42613616 206.18522104 431.92198194 206.19225615 428.41772461 206.20581055 C403.32934464 206.30111035 378.4754243 206.07797461 353.6875 201.6875 C352.42969727 201.4702124 351.17189453 201.2529248 349.87597656 201.02905273 C339.44465217 199.17775284 329.17155557 196.96781027 319 194 C317.88141602 193.67394775 317.88141602 193.67394775 316.74023438 193.34130859 C300.84385442 188.59648003 285.79862333 181.66953542 271.1171875 173.99609375 C269.08834859 172.85809446 269.08834859 172.85809446 267 173 C267.3259314 172.17592651 267.3259314 172.17592651 267.65844727 171.33520508 C268.6397021 168.8325963 269.60120956 166.32284132 270.5625 163.8125 C270.90474609 162.94818359 271.24699219 162.08386719 271.59960938 161.19335938 C271.91865234 160.35224609 272.23769531 159.51113281 272.56640625 158.64453125 C272.86490479 157.87471924 273.16340332 157.10490723 273.47094727 156.31176758 C274.10750752 153.53023133 273.82847266 151.71489016 273 149 C271.26241383 147.60120058 271.26241383 147.60120058 269 146.8125 C268.195625 146.49152344 267.39125 146.17054688 266.5625 145.83984375 C263.32991464 144.78038361 260.10130103 144.06237413 256.75 143.4921875 C256.1725 143.32976562 255.595 143.16734375 255 143 C254.67 142.34 254.34 141.68 254 141 Z " fill="#000000" transform="translate(0,0)"/>
</svg>
