<?xml version="1.0" standalone="no"?>
<!DOCTYPE svg PUBLIC "-//W3C//DTD SVG 20010904//EN"
 "http://www.w3.org/TR/2001/REC-SVG-20010904/DTD/svg10.dtd">
<svg version="1.0" xmlns="http://www.w3.org/2000/svg"
 width="540.000000pt" height="540.000000pt" viewBox="0 0 540.000000 540.000000"
 preserveAspectRatio="xMidYMid meet">

<g transform="translate(0.000000,540.000000) scale(0.100000,-0.100000)"
fill="#000000" stroke="none">
<path d="M15 5379 c-11 -16 -1 -19 13 -3 7 8 8 14 3 14 -5 0 -13 -5 -16 -11z"/>
<path d="M3793 5248 c-66 -68 -204 -213 -309 -323 -104 -110 -288 -303 -409
-430 -121 -126 -274 -288 -340 -360 -66 -71 -196 -211 -290 -310 -94 -99 -270
-286 -391 -415 -121 -129 -290 -307 -375 -396 -199 -208 -309 -329 -309 -341
0 -5 12 -15 27 -22 25 -12 645 -240 805 -296 43 -15 83 -33 89 -41 11 -14 -15
-87 -476 -1349 -211 -576 -345 -950 -345 -961 0 -18 35 11 119 99 53 56 191
201 306 322 116 121 457 481 760 800 725 765 906 955 1173 1232 138 144 222
238 219 247 -3 7 -34 23 -69 34 -59 18 -305 108 -693 253 -115 44 -171 69
-173 80 -2 9 161 466 361 1015 486 1330 462 1263 450 1275 -7 7 -47 -27 -130
-113z"/>
<path d="M11 14 c0 -11 3 -14 6 -6 3 7 2 16 -1 19 -3 4 -6 -2 -5 -13z"/>
</g>
</svg>
